<svg height="512" viewBox="0 0 512 512" width="512" xmlns="http://www.w3.org/2000/svg"><path d="m200 248h96v96h-96z" fill="#e0e0de"/><path d="m24 248h96v96h-96z" fill="#e0e0de"/><path d="m48 272h16v16h-16z" fill="#348fd9"/><path d="m80 272h16v16h-16z" fill="#348fd9"/><path d="m48 304h16v16h-16z" fill="#348fd9"/><path d="m80 304h16v16h-16z" fill="#348fd9"/><path d="m120 216h-80l-16 32h96z" fill="#f35244"/><path d="m200 216h80l16 32h-96z" fill="#f35244"/><path d="m120 184h80v160h-80z" fill="#e0e0de"/><circle cx="160" cy="224" fill="#c7c7c5" r="16"/><path d="m120 184 40-48 40 48z" fill="#f35244"/><path d="m120 312h80v32h-80z" fill="#ebebe9"/><path d="m120 264h80v48h-80z" fill="#348fd9"/><path d="m24 248h96v16h-96z" fill="#d6d6d4"/><path d="m224 272h16v16h-16z" fill="#348fd9"/><path d="m256 272h16v16h-16z" fill="#348fd9"/><path d="m224 304h16v16h-16z" fill="#348fd9"/><path d="m256 304h16v16h-16z" fill="#348fd9"/><path d="m200 248h96v16h-96z" fill="#d6d6d4"/><path d="m139 312h61v-48h-7z" fill="#3086cd"/><path d="m200 216h16v32h-16z" fill="#ea4a3b"/><path d="m160 136-8.403 10.084 26.249 37.916h22.154z" fill="#ea4a3b"/><path d="m160 96h40v32h-40z" fill="#348fd9"/><path d="m152 96h16v49.62h-16z" fill="#e0e0de"/><path d="m200 248h16v96h-16z" fill="#d6d6d4"/><path d="m152 264h16v48h-16z" fill="#2d7dbf"/><path d="m200.14 328v-56a47.975 47.975 0 0 1 48-48h95.86a48 48 0 0 1 48 48v56z" fill="#3c5174"/><path d="m360 273.6v86.4h-128v-86.4l8-1.6 16-8v-56h80v56l16 8z" fill="#fec9a3"/><path d="m336 238.318v-30.318h-80v30.318a87.469 87.469 0 0 0 80 0z" fill="#feb784"/><path d="m488 453.76v.64a33.6 33.6 0 0 1 -64.62 12.92l-31.38-75.32v96h-192v-96l-31.38 75.32a33.615 33.615 0 0 1 -36.62 20.22c-16.28-2.71-28-17.17-28-33.67v-.16a33.579 33.579 0 0 1 1.89-11.1l45.9-131.14a43.6 43.6 0 0 1 32.59-28.35l15.62-3.12 40-8 16-8v7.21c0 22.43 18.35 41.21 40.78 40.78a40 40 0 0 0 39.22-39.99v-8l16 8 40 8 15.19 3.04a43.621 43.621 0 0 1 32.81 28.96l46.08 130.57a33.578 33.578 0 0 1 1.92 11.19z" fill="#f35244"/><path d="m488 453.76v.64a33.6 33.6 0 0 1 -64.62 12.92l-31.38-75.32v96h-160.29c79.61-37.48 146.86-86.55 203.39-186.11a43.391 43.391 0 0 1 4.9 10.11l46.08 130.57a33.578 33.578 0 0 1 1.92 11.19z" fill="#ea4a3b"/><path d="m133.41 363.98 62.17 38.64-26.96 64.7a33.6 33.6 0 0 1 -64.62-12.92v-.69a33.579 33.579 0 0 1 1.89-11.1z" fill="#feb784"/><path d="m488 453.76v.64a33.6 33.6 0 0 1 -64.62 12.92l-28.3-67.92 62.86-36.57 28.14 79.74a33.578 33.578 0 0 1 1.92 11.19z" fill="#feb784"/><path d="m368 112v48a72.006 72.006 0 0 1 -72 72 71.157 71.157 0 0 1 -9.85-.68h-.01a72.006 72.006 0 0 1 -62.14-71.32v-48a72 72 0 0 1 144 0z" fill="#fec9a3"/><path d="m368 112v48a72.006 72.006 0 0 1 -72 72 71.157 71.157 0 0 1 -9.85-.68 88 88 0 0 0 49.85-79.32v-48a87.688 87.688 0 0 0 -25.78-62.22c-.16-.16-.32-.32-.48-.47a72.04 72.04 0 0 1 58.26 70.69z" fill="#fec093"/><path d="m368 72v40l-24-32h-96l-24 32v-40a48 48 0 0 1 48-48h48a48 48 0 0 1 48 48z" fill="#95573a"/><path d="m259.938 120a12 12 0 1 0 11.983 12 12 12 0 0 0 -11.983-12z" fill="#7a432a"/><path d="m331.617 120a12 12 0 1 0 11.983 12 12 12 0 0 0 -11.983-12z" fill="#7a432a"/><path d="m288.743 184h-16.858v-16h16.858a98.176 98.176 0 0 0 28.6-4.213l4.657 15.307a114.126 114.126 0 0 1 -33.257 4.906z" fill="#f7a468"/><path d="m216 112h8a0 0 0 0 1 0 0v48a0 0 0 0 1 0 0h-8a24 24 0 0 1 -24-24 24 24 0 0 1 24-24z" fill="#feb784"/><path d="m392 112h8a0 0 0 0 1 0 0v48a0 0 0 0 1 0 0h-8a24 24 0 0 1 -24-24 24 24 0 0 1 24-24z" fill="#feb784" transform="matrix(-1 0 0 -1 768 272)"/><path d="m200 280 40-8v216h-40z" fill="#49648e"/><path d="m392 280v208h-40v-216z" fill="#49648e"/><path d="m104 458.387a29.612 29.612 0 0 0 29.612 29.613h6.646a29.613 29.613 0 0 0 27.335-18.223l32.407-77.777h48v-64h-48l-89.511 111.889a29.607 29.607 0 0 0 -6.489 18.498z" fill="#fec9a3"/><path d="m344 328v64h48l32.407 77.777a29.613 29.613 0 0 0 27.335 18.223h6.646a29.612 29.612 0 0 0 29.612-29.612 29.607 29.607 0 0 0 -6.489-18.5l-89.511-111.888z" fill="#fec9a3"/><g fill="#e0e0de"><path d="m16 376h56v16h-56z"/><path d="m40 416h48v16h-48z"/><path d="m16 464h16v16h-16z"/><path d="m48 464h32v16h-32z"/><path d="m472 336h24v16h-24z"/><path d="m456 288h40v16h-40z"/></g><path d="m368 72v40l-24-32h-11.32a88.258 88.258 0 0 0 -47.98-56h35.3a48 48 0 0 1 48 48z" fill="#8f4d2e"/></svg>